<mxfile host="app.diagrams.net" modified="2020-12-05T14:52:29.210Z" agent="5.0 (Windows NT 10.0; Win64; x64) AppleWebKit/537.36 (KHTML, like Gecko) Chrome/86.0.4240.198 Safari/537.36" etag="CeLaXcejMnP15WzpTISo" version="13.10.9" type="github" pages="2">
  <diagram name="Page-1" id="9f46799a-70d6-7492-0946-bef42562c5a5">
    <mxGraphModel dx="2522" dy="832" grid="1" gridSize="10" guides="1" tooltips="1" connect="1" arrows="1" fold="1" page="1" pageScale="1" pageWidth="1100" pageHeight="850" background="#ffffff" math="0" shadow="0">
      <root>
        <mxCell id="0" />
        <mxCell id="1" parent="0" />
        <mxCell id="_-vHw2Hf3Y4jIR1D3GAw-1" value="" style="rounded=0;whiteSpace=wrap;html=1;" vertex="1" parent="1">
          <mxGeometry x="-80" y="110" width="1080" height="100" as="geometry" />
        </mxCell>
        <mxCell id="_-vHw2Hf3Y4jIR1D3GAw-3" value="" style="rounded=0;whiteSpace=wrap;html=1;rotation=90;" vertex="1" parent="1">
          <mxGeometry x="-300" y="470" width="580" height="160" as="geometry" />
        </mxCell>
        <mxCell id="_-vHw2Hf3Y4jIR1D3GAw-4" value="" style="rounded=0;whiteSpace=wrap;html=1;" vertex="1" parent="1">
          <mxGeometry x="120" y="240" width="880" height="590" as="geometry" />
        </mxCell>
      </root>
    </mxGraphModel>
  </diagram>
  <diagram id="XZiBa5Fhn8mZjOXqApWi" name="Page-2">
    <mxGraphModel dx="1422" dy="832" grid="1" gridSize="10" guides="1" tooltips="1" connect="1" arrows="1" fold="1" page="1" pageScale="1" pageWidth="827" pageHeight="1169" math="0" shadow="0">
      <root>
        <mxCell id="mpci3WB_3tDAy5VV7tk--0" />
        <mxCell id="mpci3WB_3tDAy5VV7tk--1" parent="mpci3WB_3tDAy5VV7tk--0" />
      </root>
    </mxGraphModel>
  </diagram>
</mxfile>
